<svg xmlns="http://www.w3.org/2000/svg" viewBox="0 0 64 64" role="img" aria-label="AI Hub 6">
  <defs>
    <linearGradient id="bg" x1="9" y1="5" x2="55" y2="59" gradientUnits="userSpaceOnUse">
      <stop offset="0" stop-color="#22d3ee" />
      <stop offset="0.45" stop-color="#6366f1" />
      <stop offset="1" stop-color="#c026d3" />
    </linearGradient>
    <linearGradient id="six" x1="20" y1="12" x2="44" y2="52" gradientUnits="userSpaceOnUse">
      <stop offset="0" stop-color="#ffffff" />
      <stop offset="0.5" stop-color="#dbeafe" />
      <stop offset="1" stop-color="#a5f3fc" />
    </linearGradient>
    <filter id="shadow" x="-25%" y="-25%" width="150%" height="150%">
      <feDropShadow dx="0" dy="3" stdDeviation="3" flood-color="#020617" flood-opacity="0.36" />
    </filter>
  </defs>

  <rect width="64" height="64" rx="18" fill="#020617" />
  <path d="M12 48V17.5C12 14.5 14.5 12 17.5 12H47.5" fill="none" stroke="url(#bg)" stroke-width="6.5" stroke-linecap="round" />
  <path d="M52 16V46.5C52 49.5 49.5 52 46.5 52H16.5" fill="none" stroke="url(#bg)" stroke-width="6.5" stroke-linecap="round" />

  <g filter="url(#shadow)">
    <path d="M42.8 17.6C39.9 15.7 36.6 14.8 33 15C23.9 15.5 18 22.4 18 33.1C18 43 23.7 50 32.9 50C40.8 50 46.5 44.7 46.5 37.5C46.5 30.7 41.4 25.8 34.1 25.8C30.1 25.8 26.8 27.4 24.9 30C25.7 24.3 28.8 21.2 33.4 20.9C35.8 20.7 38.1 21.3 40.2 22.7L42.8 17.6Z" fill="url(#six)" />
    <path d="M32.9 31.3C37 31.3 39.9 33.8 39.9 37.5C39.9 41.3 37.1 44.1 33.1 44.1C28.7 44.1 25.7 41.1 25.7 36.9C25.7 33.7 28.7 31.3 32.9 31.3Z" fill="#020617" opacity="0.96" />
    <circle cx="33" cy="37.4" r="5.1" fill="#38bdf8" />
    <circle cx="33" cy="37.4" r="2" fill="#f8fafc" />
  </g>

  <path d="M32 10.8V7.8M53.2 32H56.2M32 56.2V53.2M7.8 32H10.8" stroke="#67e8f9" stroke-width="2.4" stroke-linecap="round" opacity="0.9" />
</svg>
