<svg xmlns="http://www.w3.org/2000/svg" viewBox="0 0 64 64" role="img" aria-label="AI Hub">
  <defs>
    <linearGradient id="bg" x1="8" y1="6" x2="56" y2="58" gradientUnits="userSpaceOnUse">
      <stop offset="0" stop-color="#38bdf8" />
      <stop offset="0.48" stop-color="#6366f1" />
      <stop offset="1" stop-color="#a855f7" />
    </linearGradient>
    <linearGradient id="core" x1="22" y1="18" x2="42" y2="46" gradientUnits="userSpaceOnUse">
      <stop offset="0" stop-color="#f8fafc" />
      <stop offset="1" stop-color="#c7d2fe" />
    </linearGradient>
    <filter id="softShadow" x="-20%" y="-20%" width="140%" height="140%">
      <feDropShadow dx="0" dy="3" stdDeviation="3" flood-color="#0f172a" flood-opacity="0.28" />
    </filter>
  </defs>

  <rect width="64" height="64" rx="18" fill="#020617" />
  <path d="M12 48V17.5C12 14.5 14.5 12 17.5 12H48" fill="none" stroke="url(#bg)" stroke-width="7" stroke-linecap="round" />
  <path d="M52 16V46.5C52 49.5 49.5 52 46.5 52H16" fill="none" stroke="url(#bg)" stroke-width="7" stroke-linecap="round" />

  <g filter="url(#softShadow)">
    <circle cx="32" cy="32" r="12" fill="url(#core)" />
    <path d="M32 19V13M32 51v-6M45 32h6M13 32h6M41.2 22.8l4.2-4.2M18.6 45.4l4.2-4.2M41.2 41.2l4.2 4.2M18.6 18.6l4.2 4.2" stroke="#67e8f9" stroke-width="3" stroke-linecap="round" />
    <circle cx="32" cy="32" r="4.2" fill="#0f172a" />
    <circle cx="32" cy="32" r="1.9" fill="#22d3ee" />
  </g>
</svg>
